<svg width="25" height="25" viewBox="0 0 25 25" fill="none" xmlns="http://www.w3.org/2000/svg">
<path d="M18.8281 1.61877L23.175 6.15002V23.3813H6.93672V23.4375H23.2305V6.20706L18.8281 1.61877Z" fill="#909090"/>
<path d="M18.7742 1.5625H6.88125V23.3813H23.175V6.15078L18.7742 1.5625Z" fill="#F4F4F4"/>
<path d="M6.76172 2.73438H1.76953V8.06797H17.4727V2.73438H6.76172Z" fill="#7A7B7C"/>
<path d="M17.5562 7.97739H1.87109V2.63989H17.5562V7.97739Z" fill="#DD2025"/>
<path d="M7.07188 3.54222H6.05078V7.29222H6.85391V6.02738L7.03125 6.03754C7.20357 6.03457 7.37427 6.0037 7.53672 5.94613C7.67914 5.89714 7.81016 5.81981 7.92188 5.71879C8.03555 5.62255 8.12517 5.5011 8.18359 5.3641C8.26195 5.13636 8.28994 4.89433 8.26562 4.65472C8.26075 4.48356 8.23074 4.31404 8.17656 4.1516C8.12724 4.03434 8.05406 3.92863 7.96165 3.8412C7.86925 3.75378 7.75965 3.68654 7.63984 3.64379C7.53626 3.60629 7.42923 3.57907 7.32031 3.56254C7.23783 3.54981 7.15455 3.54302 7.07109 3.54222M6.92344 5.33441H6.85391V4.17816H7.00469C7.07123 4.17336 7.13801 4.18358 7.20008 4.20805C7.26215 4.23253 7.31792 4.27064 7.36328 4.31957C7.45728 4.44536 7.5075 4.59848 7.50625 4.75551C7.50625 4.94769 7.50625 5.12191 7.33281 5.24457C7.20786 5.31329 7.06564 5.34501 6.92344 5.33441ZM9.79141 3.53207C9.70469 3.53207 9.62031 3.53832 9.56094 3.54066L9.375 3.54535H8.76563V7.29535H9.48281C9.75689 7.30286 10.0298 7.25641 10.2859 7.15863C10.4921 7.07685 10.6747 6.94502 10.8172 6.77504C10.9558 6.60352 11.0552 6.40382 11.1086 6.18988C11.17 5.94759 11.1999 5.69841 11.1977 5.44847C11.2128 5.15329 11.19 4.85737 11.1297 4.56801C11.0725 4.35501 10.9654 4.1587 10.8172 3.99535C10.7009 3.86345 10.5586 3.75705 10.3992 3.68285C10.2623 3.6195 10.1183 3.57282 9.97031 3.54379C9.91145 3.53406 9.85184 3.52962 9.79219 3.53051M9.65 6.60629H9.57188V4.21254H9.58203C9.74309 4.19401 9.90605 4.22307 10.0508 4.29613C10.1568 4.38076 10.2431 4.48738 10.3039 4.60863C10.3695 4.73624 10.4073 4.87629 10.4148 5.01957C10.4219 5.19144 10.4148 5.33207 10.4148 5.44847C10.418 5.58257 10.4094 5.71668 10.3891 5.84926C10.365 5.98537 10.3205 6.11707 10.257 6.23988C10.1852 6.35407 10.0882 6.45028 9.97344 6.52113C9.87705 6.58347 9.76291 6.61256 9.64844 6.60394M13.6172 3.54535H11.7188V7.29535H12.5219V5.80785H13.5375V5.11097H12.5219V4.24222H13.6156V3.54535" fill="#464648"/>
<path d="M17.0164 15.8242C17.0164 15.8242 19.507 15.3726 19.507 16.2234C19.507 17.0742 17.9641 16.7281 17.0164 15.8242ZM15.175 15.889C14.7793 15.9765 14.3937 16.1045 14.0242 16.2711L14.3367 15.5679C14.6492 14.8648 14.9734 13.9062 14.9734 13.9062C15.3463 14.5338 15.7802 15.1231 16.2687 15.6656C15.9003 15.7205 15.5352 15.7956 15.175 15.8906V15.889ZM14.1891 10.8109C14.1891 10.0695 14.4289 9.86715 14.6156 9.86715C14.8023 9.86715 15.0125 9.95699 15.0195 10.6007C14.9587 11.2481 14.8232 11.8862 14.6156 12.5023C14.3313 11.985 14.1842 11.4035 14.1883 10.8132L14.1891 10.8109ZM10.557 19.0265C9.79297 18.5695 12.1594 17.1625 12.5883 17.1171C12.5859 17.1179 11.357 19.5047 10.557 19.0265ZM20.2344 16.3242C20.2266 16.2461 20.1562 15.3812 18.6172 15.4179C17.9757 15.4076 17.3345 15.4528 16.7008 15.5531C16.0869 14.9347 15.5583 14.2371 15.1289 13.4789C15.3994 12.6972 15.5632 11.8825 15.6156 11.057C15.593 10.1195 15.3688 9.58199 14.65 9.58981C13.9313 9.59762 13.8266 10.2265 13.9211 11.1625C14.0137 11.7914 14.1884 12.4055 14.4406 12.989C14.4406 12.989 14.1086 14.0226 13.6695 15.0507C13.2305 16.0789 12.9305 16.6179 12.9305 16.6179C12.167 16.8665 11.4482 17.2357 10.8016 17.7117C10.1578 18.3109 9.89609 18.7711 10.2352 19.2312C10.5273 19.6281 11.55 19.7179 12.4641 18.5203C12.9497 17.9017 13.3934 17.2513 13.7922 16.5734C13.7922 16.5734 15.1859 16.1914 15.6195 16.0867C16.0531 15.982 16.5773 15.8992 16.5773 15.8992C16.5773 15.8992 17.85 17.1796 19.0773 17.1343C20.3047 17.089 20.2453 16.4007 20.2375 16.3257" fill="#DD2025"/>
<path d="M18.7141 1.62268V6.21096H23.1148L18.7141 1.62268Z" fill="#909090"/>
<path d="M18.7742 1.5625V6.15078H23.175L18.7742 1.5625Z" fill="#F4F4F4"/>
<path d="M7.01172 3.48204H5.99063V7.23204H6.79688V5.96798L6.975 5.97814C7.14732 5.97517 7.31802 5.9443 7.48047 5.88673C7.62288 5.83773 7.7539 5.76039 7.86563 5.65939C7.97844 5.5629 8.06725 5.44146 8.125 5.3047C8.20336 5.07696 8.23134 4.83493 8.20703 4.59533C8.20215 4.42416 8.17214 4.25464 8.11797 4.0922C8.06865 3.97494 7.99546 3.86923 7.90306 3.7818C7.81065 3.69438 7.70106 3.62714 7.58125 3.58439C7.47719 3.54652 7.36963 3.51904 7.26016 3.50236C7.17768 3.48963 7.09439 3.48284 7.01094 3.48204M6.86328 5.27423H6.79375V4.11798H6.94531C7.01186 4.11318 7.07863 4.1234 7.1407 4.14787C7.20277 4.17235 7.25855 4.21046 7.30391 4.25939C7.39791 4.38518 7.44812 4.5383 7.44687 4.69533C7.44687 4.88751 7.44688 5.06173 7.27344 5.18439C7.14849 5.25311 7.00627 5.28405 6.86406 5.27345M9.73125 3.47189C9.64453 3.47189 9.56016 3.47814 9.50078 3.48048L9.31719 3.48517H8.70781V7.23517H9.425C9.69908 7.24268 9.97197 7.19623 10.2281 7.09845C10.4343 7.01667 10.6169 6.88484 10.7594 6.71486C10.8979 6.54334 10.9974 6.34364 11.0508 6.1297C11.1122 5.88741 11.1421 5.63823 11.1398 5.38829C11.155 5.0931 11.1322 4.79719 11.0719 4.50783C11.0147 4.29483 10.9075 4.09852 10.7594 3.93517C10.6431 3.80327 10.5008 3.69686 10.3414 3.62267C10.2045 3.55932 10.0605 3.51264 9.9125 3.48361C9.85364 3.47388 9.79403 3.46944 9.73438 3.47033M9.59219 6.54611H9.51406V4.15236H9.52422C9.68528 4.13383 9.84824 4.16289 9.99297 4.23595C10.099 4.32058 10.1853 4.4272 10.2461 4.54845C10.3117 4.67606 10.3495 4.81611 10.357 4.95939C10.3641 5.13126 10.357 5.27189 10.357 5.38829C10.3602 5.52239 10.3516 5.6565 10.3313 5.78908C10.3072 5.92519 10.2627 6.05689 10.1992 6.1797C10.1274 6.29388 10.0304 6.3901 9.91563 6.46095C9.81924 6.52329 9.70509 6.55238 9.59063 6.54376M13.557 3.48517H11.6586V7.23517H12.4617V5.74767H13.4773V5.05079H12.4617V4.18204H13.5555V3.48517" fill="white"/>
</svg>
