<svg width="25" height="25" viewBox="0 0 25 25" fill="none" xmlns="http://www.w3.org/2000/svg">
<path d="M22.4048 21.3677L21.3696 22.4028C21.3306 22.4419 21.2817 22.459 21.2305 22.459C21.1792 22.459 21.1304 22.4395 21.0913 22.4028L19.2334 20.5449C18.4257 21.0922 17.4722 21.3839 16.4966 21.3823C15.2466 21.3823 13.9966 20.9062 13.042 19.9517L10.5542 17.4639C10.5178 17.4272 10.4975 17.3776 10.4975 17.3259C10.4975 17.2743 10.5178 17.2247 10.5542 17.188L17.1875 10.5547C17.2266 10.5156 17.2754 10.4985 17.3267 10.4985C17.3755 10.4985 17.4268 10.5181 17.4658 10.5547L19.9536 13.0425C21.6357 14.7271 21.8335 17.332 20.5469 19.2314L22.4048 21.0894C22.4805 21.1675 22.4805 21.292 22.4048 21.3677ZM18.7769 14.2168L17.3267 12.7666L12.7661 17.3271L14.2163 18.7773C14.8242 19.3853 15.6348 19.7222 16.4966 19.7222C17.3584 19.7222 18.1665 19.3877 18.7769 18.7773C19.3848 18.1694 19.7217 17.3589 19.7217 16.4971C19.7217 15.6353 19.3848 14.8271 18.7769 14.2168ZM14.1333 11.6533C14.0966 11.6897 14.047 11.7101 13.9954 11.7101C13.9437 11.7101 13.8941 11.6897 13.8574 11.6533L12.2314 10.0273L10.0269 12.2319L11.6553 13.8604C11.731 13.936 11.731 14.0605 11.6553 14.1362L10.7666 15.0249C10.7299 15.0613 10.6803 15.0816 10.6287 15.0816C10.577 15.0816 10.5274 15.0613 10.4907 15.0249L8.8623 13.3965L7.8125 14.4463C7.79427 14.4645 7.77255 14.4789 7.74864 14.4886C7.72473 14.4982 7.69912 14.5029 7.67334 14.5024C7.62451 14.5024 7.57324 14.4829 7.53418 14.4463L5.04883 11.9585C3.3667 10.2739 3.16894 7.66894 4.45556 5.76953L2.59765 3.91162C2.56131 3.87491 2.54092 3.82534 2.54092 3.77368C2.54092 3.72202 2.56131 3.67245 2.59765 3.63574L3.63281 2.60059C3.67187 2.56152 3.7207 2.54443 3.77197 2.54443C3.82324 2.54443 3.87207 2.56396 3.91113 2.60059L5.76904 4.45849C6.5918 3.89941 7.54883 3.62109 8.50586 3.62109C9.75586 3.62109 11.0059 4.09717 11.9604 5.05176L14.4482 7.53955C14.5239 7.61523 14.5239 7.73975 14.4482 7.81543L13.3984 8.86523L15.0269 10.4937C15.1025 10.5693 15.1025 10.6938 15.0269 10.7695L14.1333 11.6533ZM10.7837 6.22363C10.4849 5.9233 10.1295 5.68516 9.73812 5.52299C9.34673 5.36081 8.92708 5.27782 8.50342 5.27881C7.6416 5.27881 6.83349 5.61328 6.22314 6.22363C5.92281 6.52244 5.68467 6.87781 5.5225 7.2692C5.36032 7.66059 5.27733 8.08025 5.27832 8.50391C5.27832 9.36572 5.61279 10.1738 6.22314 10.7842L7.67334 12.2344L12.2339 7.67383L10.7837 6.22363Z" fill="#41A1A4"/>
</svg>
