<svg width="44" height="32" viewBox="0 0 44 32" fill="none" xmlns="http://www.w3.org/2000/svg">
<rect x="0.5" y="0.5" width="43" height="31" rx="5" fill="white"/>
<path d="M4.05837 2.5C3.18087 2.5 2.5 3.37536 2.5 4.37369V20.1072C2.54092 22.6179 3.3499 25.0073 4.75234 26.7596C6.15477 28.5119 8.03819 29.4867 9.99609 29.4736C11.3713 29.4716 12.7207 28.9951 13.9029 28.0942C15.0851 27.1932 16.0566 25.9009 16.7154 24.3527C17.9813 27.3498 20.513 29.4736 23.3357 29.4736C27.5233 29.4736 30.9309 25.2281 30.9309 19.8592C31.0284 14.7384 27.6208 10.4908 23.4348 10.4908C20.6105 10.4908 18.0804 12.4895 16.8146 15.4866C15.5471 12.4895 13.0153 10.4908 10.0952 10.4908C8.34185 10.4908 6.78348 11.2411 5.51761 12.3645V4.37369C5.50894 3.88061 5.35247 3.41077 5.08071 3.06183C4.80895 2.71288 4.4428 2.51167 4.05837 2.5ZM31.1031 10.2886C30.7029 10.2012 30.2919 10.3195 29.9591 10.6179C29.3741 11.2432 29.1808 12.4916 29.6666 13.3649L33.5617 19.8592L29.6683 26.3515C29.1808 27.2268 29.2783 28.3523 29.9608 28.9776C30.6416 29.6028 31.6117 29.5987 32.0992 28.7233L35.4126 23.2294L38.8186 28.8504C39.3061 29.6007 40.2795 29.7237 40.9603 29.1005C41.5453 28.4753 41.6428 27.3498 41.157 26.4765L37.3577 19.9843L41.157 13.6129C41.6444 12.7396 41.6412 11.4912 40.9603 10.8659C40.1803 10.2407 39.3045 10.3657 38.8186 11.2411L35.4126 16.61L32.0976 10.9931C31.8555 10.6179 31.4915 10.3678 31.1031 10.2886ZM9.99609 14.2361C12.5278 14.2361 14.5737 16.8622 14.5737 19.9843C14.5737 23.2315 12.5278 25.7283 9.99609 25.7283C7.46435 25.7283 5.42011 23.2315 5.42011 19.9843C5.42011 16.8622 7.46435 14.2361 9.99609 14.2361ZM23.4348 14.2361C25.9665 14.2361 28.0108 16.8622 28.0108 19.9843C27.9133 23.2315 25.869 25.7283 23.4348 25.7283C20.903 25.7283 18.8572 23.2315 18.8572 19.9843C18.8572 16.8622 20.903 14.2361 23.4348 14.2361Z" fill="#0061D5"/>
</svg>
