<svg width="18" height="19" viewBox="0 0 18 19" fill="none" xmlns="http://www.w3.org/2000/svg">
<path d="M9 1.5V3.5M14.6569 3.84311L13.2427 5.25733M17 9.5H15M14.6569 15.1569L13.2427 13.7427M9 15.5V17.5M4.75733 13.7427L3.34311 15.1569M3 9.5H1M4.75733 5.25733L3.34311 3.84311M12.3333 9.5C12.3333 10.3841 11.9821 11.2319 11.357 11.857C10.7319 12.4821 9.88406 12.8333 9 12.8333C8.11595 12.8333 7.2681 12.4821 6.64298 11.857C6.01786 11.2319 5.66667 10.3841 5.66667 9.5C5.66667 8.61595 6.01786 7.7681 6.64298 7.14298C7.2681 6.51786 8.11595 6.16667 9 6.16667C9.88406 6.16667 10.7319 6.51786 11.357 7.14298C11.9821 7.7681 12.3333 8.61595 12.3333 9.5Z" stroke="#2563EB" stroke-width="2" stroke-linecap="round" stroke-linejoin="round"/>
</svg>
