<svg width="24" height="24" viewBox="0 0 24 24" fill="none" xmlns="http://www.w3.org/2000/svg">
<path d="M19.5 4.5V7.5H4.5V4.5H19.5ZM19.5 3H4.5C4.10218 3 3.72064 3.15804 3.43934 3.43934C3.15804 3.72064 3 4.10218 3 4.5V7.5C3 7.89782 3.15804 8.27936 3.43934 8.56066C3.72064 8.84196 4.10218 9 4.5 9H19.5C19.8978 9 20.2794 8.84196 20.5607 8.56066C20.842 8.27936 21 7.89782 21 7.5V4.5C21 4.10218 20.842 3.72064 20.5607 3.43934C20.2794 3.15804 19.8978 3 19.5 3ZM7.5 12V19.5H4.5V12H7.5ZM7.5 10.5H4.5C4.10218 10.5 3.72064 10.658 3.43934 10.9393C3.15804 11.2206 3 11.6022 3 12V19.5C3 19.8978 3.15804 20.2794 3.43934 20.5607C3.72064 20.842 4.10218 21 4.5 21H7.5C7.89782 21 8.27936 20.842 8.56066 20.5607C8.84196 20.2794 9 19.8978 9 19.5V12C9 11.6022 8.84196 11.2206 8.56066 10.9393C8.27936 10.658 7.89782 10.5 7.5 10.5ZM19.5 12V19.5H12V12H19.5ZM19.5 10.5H12C11.6022 10.5 11.2206 10.658 10.9393 10.9393C10.658 11.2206 10.5 11.6022 10.5 12V19.5C10.5 19.8978 10.658 20.2794 10.9393 20.5607C11.2206 20.842 11.6022 21 12 21H19.5C19.8978 21 20.2794 20.842 20.5607 20.5607C20.842 20.2794 21 19.8978 21 19.5V12C21 11.6022 20.842 11.2206 20.5607 10.9393C20.2794 10.658 19.8978 10.5 19.5 10.5Z" fill="#2EC1C5"/>
</svg>
