<svg width="16" height="16" viewBox="0 0 16 16" fill="none" xmlns="http://www.w3.org/2000/svg">
<path d="M2.33337 10.3333H5.66671V13.6667H2.33337V10.3333ZM11.7667 6.43333L9.90004 4.56666C9.76671 4.43333 9.76671 4.23333 9.90004 4.1L11.7667 2.23333C11.9 2.1 12.1 2.1 12.2334 2.23333L14.1 4.1C14.2334 4.23333 14.2334 4.43333 14.1 4.56666L12.2334 6.43333C12.1 6.56666 11.9 6.56666 11.7667 6.43333Z" fill="#00BCD4"/>
<path d="M4 6.33334C5.10457 6.33334 6 5.43791 6 4.33334C6 3.22877 5.10457 2.33334 4 2.33334C2.89543 2.33334 2 3.22877 2 4.33334C2 5.43791 2.89543 6.33334 4 6.33334Z" fill="#3F51B5"/>
<path d="M12 14C13.1046 14 14 13.1046 14 12C14 10.8954 13.1046 10 12 10C10.8954 10 10 10.8954 10 12C10 13.1046 10.8954 14 12 14Z" fill="#448AFF"/>
<path d="M3.66663 8H4.33329V9.66667H3.66663V8Z" fill="#90A4AE"/>
<path d="M4 7L3 8.33333H5L4 7Z" fill="#90A4AE"/>
<path d="M6.66663 4H8.33329V4.66667H6.66663V4Z" fill="#90A4AE"/>
<path d="M9.33333 4.33334L8 3.33334V5.33334L9.33333 4.33334Z" fill="#90A4AE"/>
<path d="M11.6666 7H12.3333V8.66667H11.6666V7Z" fill="#90A4AE"/>
<path d="M12 9.66668L13 8.33334H11L12 9.66668Z" fill="#90A4AE"/>
</svg>
