<svg width="36" height="36" viewBox="0 0 36 36" fill="none" xmlns="http://www.w3.org/2000/svg">
<rect width="36" height="36" rx="5" fill="white"/>
<path d="M17.428 17.3507H2C2.00052 18.2656 2.18148 19.1714 2.53252 20.0162C2.88357 20.8611 3.39779 21.6284 4.04577 22.2743C4.69374 22.9201 5.46274 23.4319 6.30873 23.7802C7.15473 24.1284 8.06111 24.3065 8.976 24.304H11.816V27.0467C11.816 28.8903 12.5482 30.6585 13.8516 31.9625C15.1551 33.2664 16.923 33.9993 18.7667 34V18.6907C18.7667 18.3353 18.6255 17.9944 18.3742 17.7431C18.1229 17.4918 17.7821 17.3507 17.4267 17.3507H17.428ZM25.0587 9.676H9.648C9.64835 11.5199 10.3811 13.2882 11.6851 14.5919C12.989 15.8956 14.7574 16.628 16.6013 16.628H19.44V19.372C19.4414 21.2156 20.1745 22.9832 21.4782 24.2867C22.782 25.5902 24.5497 26.3229 26.3933 26.324V11.0107C26.3933 10.6567 26.2527 10.3172 26.0024 10.0669C25.7521 9.81662 25.4126 9.676 25.0587 9.676ZM32.684 2H17.2733C17.2733 3.84414 18.0059 5.61275 19.3099 6.91675C20.6139 8.22075 22.3825 8.95333 24.2267 8.95333H27.0653V11.696C27.0667 13.536 27.7974 15.3004 29.0972 16.6027C30.397 17.905 32.16 18.6391 34 18.644V3.34C34.0014 2.98831 33.864 2.65027 33.6176 2.39935C33.3711 2.14843 33.0356 2.00492 32.684 2Z" fill="#0052CC"/>
</svg>
