<svg width="22" height="20" viewBox="0 0 22 20" fill="none" xmlns="http://www.w3.org/2000/svg">
<g clip-path="url(#clip0_1436_29716)">
<path d="M15.3452 7.47296H21.0278C21.5648 7.47296 22 7.89681 22 8.41957V13.4598C22 15.3812 20.4004 16.9388 18.4273 16.9388H18.4104C16.4372 16.9391 14.8374 15.3817 14.8372 13.4603V7.96777C14.8371 7.9028 14.8503 7.83846 14.8758 7.77842C14.9013 7.71839 14.9388 7.66384 14.9859 7.61789C15.0331 7.57194 15.0891 7.5355 15.1508 7.51063C15.2124 7.48576 15.2785 7.47296 15.3452 7.47296Z" fill="#5059C9"/>
<path d="M19.186 6.47665C20.4576 6.47665 21.4884 5.4729 21.4884 4.23472C21.4884 2.99654 20.4576 1.9928 19.186 1.9928C17.9145 1.9928 16.8837 2.99654 16.8837 4.23472C16.8837 5.4729 17.9145 6.47665 19.186 6.47665Z" fill="#5059C9"/>
<path d="M12.0232 6.47665C13.8599 6.47665 15.3489 5.0268 15.3489 3.23833C15.3489 1.44985 13.8599 0 12.0232 0C10.1866 0 8.69763 1.44985 8.69763 3.23833C8.69763 5.0268 10.1866 6.47665 12.0232 6.47665Z" fill="#7B83EB"/>
<path d="M16.4575 7.47296H7.07737C6.54688 7.48576 6.12724 7.91447 6.13953 8.43104V14.1797C6.06545 17.2797 8.58402 19.8521 11.7674 19.928C14.9508 19.8521 17.4694 17.2797 17.3954 14.1797V8.43104C17.4077 7.91447 16.988 7.48576 16.4575 7.47296Z" fill="#7B83EB"/>
<path opacity="0.1" d="M15.1523 8.2963V18.2778C15.1508 18.5016 15.0817 18.7201 14.9537 18.9057C14.8256 19.0913 14.6444 19.2358 14.4326 19.321C14.2948 19.3781 14.1466 19.4074 13.997 19.4074H8.13204C8.04997 19.2037 7.97425 18.9999 7.91105 18.7902C7.69007 18.0818 7.57733 17.3455 7.5765 16.6049V9.48151C7.56133 8.8425 8.07828 8.31216 8.73181 8.2964H15.1522L15.1523 8.2963Z" fill="black"/>
<path opacity="0.2" d="M13.9867 8.2963V17.8017C13.9867 17.9329 13.959 18.0628 13.9051 18.1837C13.8247 18.3694 13.6883 18.5283 13.513 18.6406C13.3378 18.7529 13.1316 18.8135 12.9202 18.8148H8.36317C8.26411 18.6321 8.17083 18.4494 8.08929 18.2612C8.01096 18.0802 7.94287 17.8954 7.8853 17.7076C7.68131 17.0723 7.57724 16.4119 7.57647 15.7478V9.35924C7.56247 8.78616 8.03966 8.31052 8.64293 8.29639H13.9868L13.9867 8.2963Z" fill="black"/>
<path opacity="0.2" d="M14.5695 8.2963V17.6825C14.5647 18.3059 14.0467 18.8101 13.4061 18.8148H7.9134C7.69087 18.1048 7.57734 17.3667 7.5765 16.6244V9.48429C7.56123 8.84379 8.0818 8.3122 8.73991 8.2964L14.5695 8.2963Z" fill="black"/>
<path opacity="0.2" d="M13.9868 8.2963V17.6825C13.9818 18.3059 13.4595 18.8101 12.8137 18.8148H7.91621C7.69182 18.1048 7.57735 17.3667 7.5765 16.6244V9.48429C7.56111 8.84379 8.08601 8.3122 8.74959 8.2964L13.9868 8.2963Z" fill="black"/>
<path opacity="0.1" d="M15.1523 5.13866V7.09857C15.047 7.10484 14.9478 7.11111 14.8425 7.11111C14.7372 7.11111 14.638 7.10484 14.5327 7.09857C14.3236 7.08465 14.1162 7.05134 13.9132 6.99907C13.2948 6.85198 12.7197 6.55993 12.2352 6.14683C11.7506 5.73373 11.3703 5.2113 11.1254 4.62226C11.0399 4.42159 10.9735 4.21324 10.9271 4H14.0186C14.6436 4.0024 15.1499 4.51075 15.1523 5.13866Z" fill="black"/>
<path opacity="0.2" d="M14.5696 5.75055V7.11111C14.355 7.09695 14.1422 7.06308 13.9338 7.00992C13.2991 6.8603 12.709 6.56327 12.2118 6.14312C11.7145 5.72298 11.3243 5.19165 11.0729 4.59259H13.4061C14.0477 4.59493 14.5671 5.11205 14.5696 5.75055Z" fill="black"/>
<path opacity="0.2" d="M14.5696 5.75055V7.11111C14.355 7.09695 14.1422 7.06308 13.9338 7.00992C13.2991 6.8603 12.709 6.56327 12.2118 6.14312C11.7145 5.72298 11.3243 5.19165 11.0729 4.59259H13.4061C14.0477 4.59493 14.5671 5.11205 14.5696 5.75055Z" fill="black"/>
<path opacity="0.2" d="M13.9868 5.72811V6.96296C13.3403 6.81626 12.7393 6.525 12.2328 6.11302C11.7264 5.70103 11.3289 5.18002 11.0729 4.59259H12.8018C13.4553 4.59499 13.9843 5.10204 13.9868 5.72811Z" fill="black"/>
<path d="M1.16538 4.59269H12.8213C13.465 4.59269 13.9868 5.10113 13.9868 5.72831V17.0866C13.9868 17.7138 13.465 18.2222 12.8214 18.2222H1.16538C0.521766 18.2222 0 17.7138 0 17.0866V5.72841C0 5.10103 0.521766 4.59269 1.16538 4.59269Z" fill="url(#paint0_linear_1436_29716)"/>
<path d="M4.25995 6.61663L4.96357 6.33731C5.28385 6.20999 5.63875 6.20555 5.96202 6.3248C6.2853 6.44405 6.55484 6.67885 6.72034 6.98537L7.24865 7.96379C7.391 8.22737 7.44862 8.52966 7.41342 8.82823C7.37822 9.1268 7.25198 9.40667 7.0524 9.62857L6.32682 10.4354C6.31785 10.4454 6.31076 10.457 6.30589 10.4696C6.23719 10.6467 6.39758 11.0919 6.84203 11.7483C7.3433 12.488 7.70742 12.7669 7.86136 12.7068L8.8651 12.3031C9.14001 12.1928 9.44198 12.1727 9.7287 12.2456C10.0154 12.3185 10.2725 12.4808 10.4639 12.7098L11.172 13.5559C11.3943 13.8215 11.5142 14.1602 11.5094 14.509C11.5046 14.8578 11.3755 15.1929 11.146 15.4522L10.6389 16.0244C10.4626 16.2236 10.2415 16.3765 9.99446 16.47C9.74745 16.5635 9.48185 16.5948 9.22035 16.5613C7.66751 16.362 6.20083 15.2224 4.81073 13.1709C3.42009 11.118 2.89533 9.31622 3.26778 7.76914C3.33013 7.51013 3.45287 7.27019 3.62563 7.06958C3.7984 6.86898 4.01568 6.71364 4.25995 6.61663ZM4.49822 7.2355C4.35165 7.29369 4.22101 7.38689 4.11733 7.50724C4.01366 7.62759 3.93999 7.77154 3.90257 7.92694C3.58151 9.26008 4.05369 10.8822 5.34889 12.7939C6.64313 14.7043 7.96409 15.7304 9.30189 15.9018C9.45887 15.9219 9.6183 15.9031 9.76657 15.847C9.91484 15.7908 10.0475 15.699 10.1533 15.5794L10.6601 15.0076C10.7837 14.868 10.8533 14.6876 10.8559 14.4998C10.8585 14.312 10.794 14.1296 10.6743 13.9865L9.96623 13.14C9.86317 13.0167 9.72476 12.9293 9.57041 12.89C9.41606 12.8508 9.25349 12.8616 9.10548 12.921L8.0992 13.3257C7.54207 13.5447 6.96731 13.1047 6.30383 12.1248C5.7418 11.2958 5.52139 10.6817 5.69804 10.226C5.73221 10.1379 5.7818 10.057 5.84449 9.98705L6.57007 9.18017C6.67758 9.06069 6.7456 8.90997 6.76457 8.74917C6.78353 8.58837 6.7525 8.42556 6.67583 8.28361L6.14756 7.30563C6.05845 7.14054 5.91328 7.01407 5.73917 6.94985C5.56506 6.88563 5.37392 6.88805 5.20144 6.95665L4.49782 7.23598L4.49822 7.2355Z" fill="white"/>
</g>
<defs>
<linearGradient id="paint0_linear_1436_29716" x1="242.978" y1="-84.1363" x2="1120.75" y2="1475.95" gradientUnits="userSpaceOnUse">
<stop stop-color="#5A62C3"/>
<stop offset="0.5" stop-color="#4D55BD"/>
<stop offset="1" stop-color="#3940AB"/>
</linearGradient>
<clipPath id="clip0_1436_29716">
<rect width="22" height="20" fill="white"/>
</clipPath>
</defs>
</svg>
