<svg width="22" height="20" viewBox="0 0 22 20" fill="none" xmlns="http://www.w3.org/2000/svg">
<g clip-path="url(#clip0_1436_29735)">
<path d="M15.3452 7.47296H21.0278C21.5648 7.47296 22 7.89681 22 8.41957V13.4598C22 15.3812 20.4004 16.9388 18.4273 16.9388H18.4104C16.4372 16.9391 14.8374 15.3817 14.8372 13.4603V7.96777C14.8371 7.9028 14.8503 7.83846 14.8758 7.77842C14.9013 7.71839 14.9388 7.66384 14.9859 7.61789C15.0331 7.57194 15.0891 7.5355 15.1508 7.51063C15.2124 7.48576 15.2785 7.47296 15.3452 7.47296Z" fill="#5059C9"/>
<path d="M19.186 6.47665C20.4576 6.47665 21.4884 5.4729 21.4884 4.23472C21.4884 2.99654 20.4576 1.9928 19.186 1.9928C17.9145 1.9928 16.8837 2.99654 16.8837 4.23472C16.8837 5.4729 17.9145 6.47665 19.186 6.47665Z" fill="#5059C9"/>
<path d="M12.0232 6.47665C13.8599 6.47665 15.3489 5.0268 15.3489 3.23833C15.3489 1.44985 13.8599 0 12.0232 0C10.1866 0 8.69763 1.44985 8.69763 3.23833C8.69763 5.0268 10.1866 6.47665 12.0232 6.47665Z" fill="#7B83EB"/>
<path d="M16.4575 7.47296H7.07737C6.54688 7.48576 6.12724 7.91447 6.13953 8.43104V14.1797C6.06545 17.2797 8.58402 19.8521 11.7674 19.928C14.9508 19.8521 17.4694 17.2797 17.3954 14.1797V8.43104C17.4077 7.91447 16.988 7.48576 16.4575 7.47296Z" fill="#7B83EB"/>
<path opacity="0.1" d="M15.1523 8.2963V18.2778C15.1508 18.5016 15.0817 18.7201 14.9537 18.9057C14.8256 19.0913 14.6444 19.2358 14.4326 19.321C14.2948 19.3781 14.1466 19.4074 13.997 19.4074H8.13204C8.04997 19.2037 7.97425 18.9999 7.91105 18.7902C7.69007 18.0818 7.57733 17.3455 7.5765 16.6049V9.48151C7.56133 8.8425 8.07828 8.31216 8.73181 8.2964H15.1522L15.1523 8.2963Z" fill="black"/>
<path opacity="0.2" d="M13.9867 8.2963V17.8017C13.9867 17.9329 13.959 18.0628 13.9051 18.1837C13.8247 18.3694 13.6883 18.5283 13.513 18.6406C13.3378 18.7529 13.1316 18.8135 12.9202 18.8148H8.36317C8.26411 18.6321 8.17083 18.4494 8.08929 18.2612C8.01096 18.0802 7.94287 17.8954 7.8853 17.7076C7.68131 17.0723 7.57724 16.4119 7.57647 15.7478V9.35924C7.56247 8.78616 8.03966 8.31052 8.64293 8.29639H13.9868L13.9867 8.2963Z" fill="black"/>
<path opacity="0.2" d="M14.5695 8.2963V17.6825C14.5647 18.3059 14.0467 18.8101 13.4061 18.8148H7.9134C7.69087 18.1048 7.57734 17.3667 7.5765 16.6244V9.48429C7.56123 8.84379 8.0818 8.3122 8.73991 8.2964L14.5695 8.2963Z" fill="black"/>
<path opacity="0.2" d="M13.9868 8.2963V17.6825C13.9818 18.3059 13.4595 18.8101 12.8137 18.8148H7.91621C7.69182 18.1048 7.57735 17.3667 7.5765 16.6244V9.48429C7.56111 8.84379 8.08601 8.3122 8.74959 8.2964L13.9868 8.2963Z" fill="black"/>
<path opacity="0.1" d="M15.1523 5.13866V7.09857C15.047 7.10484 14.9478 7.11111 14.8425 7.11111C14.7372 7.11111 14.638 7.10484 14.5327 7.09857C14.3236 7.08465 14.1162 7.05134 13.9132 6.99907C13.2948 6.85198 12.7197 6.55993 12.2352 6.14683C11.7506 5.73373 11.3703 5.2113 11.1254 4.62226C11.0399 4.42159 10.9735 4.21324 10.9271 4H14.0186C14.6436 4.0024 15.1499 4.51075 15.1523 5.13866Z" fill="black"/>
<path opacity="0.2" d="M14.5696 5.75055V7.11111C14.355 7.09695 14.1422 7.06308 13.9338 7.00992C13.2991 6.8603 12.709 6.56327 12.2118 6.14312C11.7145 5.72298 11.3243 5.19165 11.0729 4.59259H13.4061C14.0477 4.59493 14.5671 5.11205 14.5696 5.75055Z" fill="black"/>
<path opacity="0.2" d="M14.5696 5.75055V7.11111C14.355 7.09695 14.1422 7.06308 13.9338 7.00992C13.2991 6.8603 12.709 6.56327 12.2118 6.14312C11.7145 5.72298 11.3243 5.19165 11.0729 4.59259H13.4061C14.0477 4.59493 14.5671 5.11205 14.5696 5.75055Z" fill="black"/>
<path opacity="0.2" d="M13.9868 5.72811V6.96296C13.3403 6.81626 12.7393 6.525 12.2328 6.11302C11.7264 5.70103 11.3289 5.18002 11.0729 4.59259H12.8018C13.4553 4.59499 13.9843 5.10204 13.9868 5.72811Z" fill="black"/>
<path d="M1.16538 4.59269H12.8213C13.465 4.59269 13.9868 5.10113 13.9868 5.72831V17.0866C13.9868 17.7138 13.465 18.2222 12.8214 18.2222H1.16538C0.521766 18.2222 0 17.7138 0 17.0866V5.72841C0 5.10103 0.521766 4.59269 1.16538 4.59269Z" fill="url(#paint0_linear_1436_29735)"/>
<path d="M5.55469 10.5648C5.55469 10.4629 5.5945 10.3652 5.66537 10.2931C5.73624 10.221 5.83236 10.1806 5.93259 10.1806H8.19997C8.3002 10.1806 8.39632 10.221 8.46719 10.2931C8.53805 10.3652 8.57787 10.4629 8.57787 10.5648C8.57787 10.6667 8.53805 10.7645 8.46719 10.8365C8.39632 10.9086 8.3002 10.9491 8.19997 10.9491H5.93259C5.83236 10.9491 5.73624 10.9086 5.66537 10.8365C5.5945 10.7645 5.55469 10.6667 5.55469 10.5648ZM5.93259 11.7176C5.83236 11.7176 5.73624 11.7581 5.66537 11.8301C5.5945 11.9022 5.55469 11.9999 5.55469 12.1019C5.55469 12.2038 5.5945 12.3015 5.66537 12.3736C5.73624 12.4456 5.83236 12.4861 5.93259 12.4861H7.44418C7.5444 12.4861 7.64052 12.4456 7.71139 12.3736C7.78226 12.3015 7.82207 12.2038 7.82207 12.1019C7.82207 11.9999 7.78226 11.9022 7.71139 11.8301C7.64052 11.7581 7.5444 11.7176 7.44418 11.7176H5.93259ZM2.53151 11.3333C2.5317 10.3182 2.86136 9.33142 3.46934 8.52619C4.07732 7.72096 4.92963 7.14225 5.89407 6.87983C6.85851 6.61742 7.88116 6.68596 8.80337 7.07484C9.72559 7.46371 10.4958 8.15118 10.9946 9.03059C11.4934 9.91001 11.6928 10.9322 11.5619 11.9386C11.4311 12.945 10.9772 13.8794 10.2708 14.5968C9.56444 15.3142 8.64497 15.7745 7.65505 15.9063C6.66513 16.0381 5.6601 15.8341 4.79587 15.3258L3.02882 15.9252C2.96354 15.9474 2.89354 15.951 2.82639 15.9357C2.75923 15.9204 2.69747 15.8867 2.64776 15.8383C2.59806 15.7899 2.56229 15.7286 2.54434 15.661C2.52638 15.5934 2.52691 15.5222 2.54587 15.4549L3.084 13.5405C2.72047 12.8636 2.53047 12.1046 2.53151 11.3333ZM7.06628 7.49074C6.39905 7.4907 5.7437 7.67029 5.16686 8.01127C4.59001 8.35224 4.11223 8.84243 3.78209 9.43202C3.45194 10.0216 3.2812 10.6896 3.28722 11.368C3.29324 12.0464 3.47581 12.7112 3.81636 13.2946C3.84256 13.3397 3.85943 13.3897 3.86593 13.4416C3.87243 13.4936 3.86842 13.5463 3.85415 13.5966L3.46945 14.9646L4.72256 14.5404C4.77578 14.5223 4.83228 14.5165 4.88797 14.5234C4.94367 14.5303 4.99714 14.5498 5.04453 14.5803C5.53978 14.899 6.10114 15.0962 6.68425 15.1563C7.26735 15.2164 7.85621 15.1378 8.40429 14.9267C8.95236 14.7155 9.44463 14.3776 9.84217 13.9397C10.2397 13.5018 10.5316 12.9759 10.6949 12.4035C10.8581 11.8311 10.8881 11.228 10.7827 10.6417C10.6772 10.0555 10.439 9.50227 10.0871 9.02574C9.7351 8.54921 9.27895 8.16245 8.75468 7.89605C8.2304 7.62964 7.65237 7.49088 7.06628 7.49074Z" fill="white"/>
</g>
<defs>
<linearGradient id="paint0_linear_1436_29735" x1="242.978" y1="-84.1363" x2="1120.75" y2="1475.95" gradientUnits="userSpaceOnUse">
<stop stop-color="#5A62C3"/>
<stop offset="0.5" stop-color="#4D55BD"/>
<stop offset="1" stop-color="#3940AB"/>
</linearGradient>
<clipPath id="clip0_1436_29735">
<rect width="22" height="20" fill="white"/>
</clipPath>
</defs>
</svg>
