<svg width="25" height="25" viewBox="0 0 25 25" fill="none" xmlns="http://www.w3.org/2000/svg">
<path d="M22.5047 2.34375H7.58203C7.45974 2.34365 7.33862 2.36763 7.2256 2.41434C7.11257 2.46104 7.00986 2.52955 6.92331 2.61596C6.83676 2.70236 6.76808 2.80496 6.72119 2.91791C6.67429 3.03085 6.6501 3.15193 6.65 3.27422V7.42188L15.2977 9.96094L23.4375 7.42188V3.27422C23.4374 3.15186 23.4132 3.03072 23.3662 2.91772C23.3193 2.80473 23.2505 2.70209 23.1639 2.61568C23.0773 2.52927 22.9745 2.46077 22.8614 2.41411C22.7482 2.36746 22.627 2.34355 22.5047 2.34375Z" fill="#41A5EE"/>
<path d="M23.4375 7.42188H6.65V12.5L15.2977 14.0234L23.4375 12.5V7.42188Z" fill="#2B7CD3"/>
<path d="M6.65 12.5V17.5781L14.7891 18.5937L23.4375 17.5781V12.5H6.65Z" fill="#185ABD"/>
<path d="M7.58203 22.6562H22.5039C22.6263 22.6566 22.7476 22.6327 22.8608 22.5861C22.974 22.5395 23.0769 22.471 23.1636 22.3846C23.2504 22.2982 23.3192 22.1955 23.3662 22.0825C23.4132 21.9694 23.4374 21.8482 23.4375 21.7258V17.5781H6.65V21.7258C6.6501 21.8481 6.67429 21.9692 6.72119 22.0821C6.76808 22.195 6.83676 22.2976 6.92331 22.384C7.00986 22.4704 7.11257 22.539 7.2256 22.5857C7.33862 22.6324 7.45974 22.6564 7.58203 22.6562Z" fill="#103F91"/>
<path opacity="0.1" d="M12.8391 6.40625H6.65V19.1016H12.8391C13.0857 19.1003 13.3219 19.002 13.4965 18.8278C13.6711 18.6537 13.77 18.4177 13.7719 18.1711V7.33672C13.77 7.09011 13.6711 6.85416 13.4965 6.67999C13.3219 6.50583 13.0857 6.40748 12.8391 6.40625Z" fill="black"/>
<path opacity="0.2" d="M12.3305 6.91406H6.65V19.6094H12.3305C12.5771 19.6081 12.8133 19.5098 12.9879 19.3356C13.1625 19.1615 13.2614 18.9255 13.2633 18.6789V7.84453C13.2614 7.59792 13.1625 7.36197 12.9879 7.18781C12.8133 7.01364 12.5771 6.91529 12.3305 6.91406Z" fill="black"/>
<path opacity="0.2" d="M12.3305 6.91406H6.65V18.5937H12.3305C12.5771 18.5925 12.8133 18.4942 12.9879 18.32C13.1625 18.1458 13.2614 17.9099 13.2633 17.6633V7.84453C13.2614 7.59792 13.1625 7.36197 12.9879 7.18781C12.8133 7.01364 12.5771 6.91529 12.3305 6.91406Z" fill="black"/>
<path opacity="0.2" d="M11.8219 6.91406H6.65V18.5937H11.8219C12.0685 18.5925 12.3047 18.4942 12.4793 18.32C12.6539 18.1458 12.7528 17.9099 12.7547 17.6633V7.84453C12.7528 7.59792 12.6539 7.36197 12.4793 7.18781C12.3047 7.01364 12.0685 6.91529 11.8219 6.91406Z" fill="black"/>
<path d="M2.49531 6.91406H11.8219C12.0689 6.91386 12.306 7.01175 12.4809 7.18622C12.6558 7.36069 12.7543 7.59748 12.7547 7.84453V17.1555C12.7543 17.4025 12.6558 17.6393 12.4809 17.8138C12.306 17.9883 12.0689 18.0861 11.8219 18.0859H2.49531C2.37295 18.0861 2.25175 18.0622 2.13864 18.0156C2.02553 17.9689 1.92272 17.9004 1.83609 17.814C1.74946 17.7276 1.6807 17.625 1.63376 17.512C1.58682 17.399 1.5626 17.2778 1.5625 17.1555V7.84453C1.5626 7.72217 1.58682 7.60103 1.63376 7.48804C1.6807 7.37504 1.74946 7.2724 1.83609 7.18599C1.92272 7.09958 2.02553 7.03109 2.13864 6.98443C2.25175 6.93777 2.37295 6.91386 2.49531 6.91406Z" fill="url(#paint0_linear_1_578)"/>
<path d="M5.39062 14.0531C5.40859 14.1969 5.42109 14.3219 5.42656 14.4289H5.44844C5.45625 14.3273 5.47344 14.2047 5.49922 14.0617C5.525 13.9188 5.54766 13.7977 5.56875 13.6984L6.54922 9.47422H7.81797L8.83359 13.6352C8.89275 13.8925 8.93503 14.1535 8.96016 14.4164H8.97734C8.996 14.1605 9.03123 13.906 9.08281 13.6547L9.89453 9.46875H11.0484L9.62344 15.5219H8.27422L7.30781 11.5172C7.27969 11.4016 7.24792 11.251 7.2125 11.0656C7.17708 10.8802 7.15521 10.7448 7.14687 10.6594H7.13047C7.11953 10.7578 7.09766 10.9039 7.06484 11.0977C7.03203 11.2922 7.00625 11.4352 6.98672 11.5289L6.07812 15.5242H4.70625L3.27344 9.47422H4.44531L5.32891 13.707C5.35528 13.8213 5.37588 13.9368 5.39062 14.0531Z" fill="white"/>
<defs>
<linearGradient id="paint0_linear_1_578" x1="3.51094" y1="6.18281" x2="10.8062" y2="18.8172" gradientUnits="userSpaceOnUse">
<stop stop-color="#2368C4"/>
<stop offset="0.5" stop-color="#1A5DBE"/>
<stop offset="1" stop-color="#1146AC"/>
</linearGradient>
</defs>
</svg>
