<svg width="27" height="27" viewBox="0 0 27 27" fill="none" xmlns="http://www.w3.org/2000/svg">
<path d="M16.4096 12.9718L7.416 11.3875V23.0948C7.41611 23.2219 7.44126 23.3479 7.49003 23.4653C7.5388 23.5828 7.61023 23.6895 7.70024 23.7794C7.79025 23.8692 7.89708 23.9405 8.01462 23.989C8.13217 24.0376 8.25813 24.0626 8.38531 24.0625H23.9041C24.0314 24.0628 24.1575 24.038 24.2753 23.9895C24.393 23.941 24.5 23.8698 24.5902 23.7799C24.6804 23.6901 24.7519 23.5833 24.8008 23.4657C24.8497 23.3481 24.8749 23.2221 24.875 23.0948V18.7812L16.4096 12.9718Z" fill="#185C37"/>
<path d="M16.4096 2.9375H8.38531C8.25813 2.93739 8.13217 2.96234 8.01462 3.01091C7.89708 3.05949 7.79025 3.13073 7.70024 3.22059C7.61023 3.31045 7.5388 3.41716 7.49003 3.53462C7.44126 3.65208 7.41611 3.778 7.416 3.90519V8.21875L16.4096 13.5L21.1716 15.0844L24.875 13.5V8.21875L16.4096 2.9375Z" fill="#21A366"/>
<path d="M7.416 8.21875H16.4096V13.5H7.416V8.21875Z" fill="#107C41"/>
<path opacity="0.1" d="M13.8526 7.16248H7.416V20.3656H13.8526C14.1091 20.3643 14.3548 20.262 14.5363 20.0809C14.7179 19.8998 14.8208 19.6544 14.8228 19.3979V8.13016C14.8208 7.87369 14.7179 7.6283 14.5363 7.44717C14.3548 7.26604 14.1091 7.16375 13.8526 7.16248Z" fill="black"/>
<path opacity="0.2" d="M13.3237 7.69067H7.416V20.8938H13.3237C13.5802 20.8925 13.8258 20.7902 14.0074 20.6091C14.189 20.428 14.2919 20.1826 14.2938 19.9261V8.65836C14.2919 8.40189 14.189 8.1565 14.0074 7.97537C13.8258 7.79423 13.5802 7.69195 13.3237 7.69067Z" fill="black"/>
<path opacity="0.2" d="M13.3237 7.69067H7.416V19.8375H13.3237C13.5802 19.8363 13.8258 19.734 14.0074 19.5529C14.189 19.3717 14.2919 19.1263 14.2938 18.8699V8.65836C14.2919 8.40189 14.189 8.1565 14.0074 7.97537C13.8258 7.79423 13.5802 7.69195 13.3237 7.69067Z" fill="black"/>
<path opacity="0.2" d="M12.7948 7.69067H7.416V19.8375H12.7948C13.0512 19.8363 13.2969 19.734 13.4785 19.5529C13.6601 19.3717 13.763 19.1263 13.7649 18.8699V8.65836C13.763 8.40189 13.6601 8.1565 13.4785 7.97537C13.2969 7.79423 13.0512 7.69195 12.7948 7.69067Z" fill="black"/>
<path d="M3.09513 7.69068H12.7948C13.0517 7.69046 13.2982 7.79226 13.4801 7.97372C13.662 8.15517 13.7644 8.40143 13.7649 8.65836V18.3417C13.7644 18.5987 13.662 18.8449 13.4801 19.0264C13.2982 19.2078 13.0517 19.3096 12.7948 19.3094H3.09513C2.96787 19.3096 2.84182 19.2848 2.72418 19.2362C2.60655 19.1877 2.49962 19.1165 2.40953 19.0266C2.31943 18.9368 2.24793 18.83 2.19911 18.7125C2.15029 18.595 2.12511 18.469 2.125 18.3417V8.65836C2.12511 8.53111 2.15029 8.40512 2.19911 8.28761C2.24793 8.17009 2.31943 8.06335 2.40953 7.97348C2.49962 7.88361 2.60655 7.81238 2.72418 7.76385C2.84182 7.71533 2.96787 7.69046 3.09513 7.69068Z" fill="url(#paint0_linear_1_552)"/>
<path d="M5.13125 16.6468L7.17144 13.491L5.30269 10.3531H6.80338L7.82306 12.3625C7.91731 12.5526 7.98556 12.694 8.01644 12.7882H8.03025C8.09688 12.6355 8.16756 12.4884 8.2415 12.3446L9.33188 10.3564H10.7131L8.79644 13.4764L10.7619 16.6492H9.29206L8.11394 14.4465C8.05924 14.3518 8.01275 14.2526 7.975 14.15H7.9555C7.92115 14.25 7.87534 14.3457 7.819 14.4351L6.60594 16.6468H5.13125Z" fill="white"/>
<path d="M23.9049 2.9375H16.4096V8.21875H24.875V3.90519C24.8749 3.77794 24.8497 3.65195 24.8009 3.53443C24.7521 3.41692 24.6806 3.31017 24.5905 3.22031C24.5004 3.13044 24.3935 3.0592 24.2758 3.01068C24.1582 2.96215 24.0321 2.93729 23.9049 2.9375Z" fill="#33C481"/>
<path d="M16.4096 13.5H24.875V18.7812H16.4096V13.5Z" fill="#107C41"/>
<defs>
<linearGradient id="paint0_linear_1_552" x1="4.15138" y1="6.93018" x2="11.7385" y2="20.0699" gradientUnits="userSpaceOnUse">
<stop stop-color="#18884F"/>
<stop offset="0.5" stop-color="#117E43"/>
<stop offset="1" stop-color="#0B6631"/>
</linearGradient>
</defs>
</svg>
