<svg width="27" height="27" viewBox="0 0 27 27" fill="none" xmlns="http://www.w3.org/2000/svg">
<path d="M2.25 13.5C2.25 9.25763 2.25 7.13587 3.5685 5.8185C4.88587 4.5 7.00763 4.5 11.25 4.5H15.75C19.9924 4.5 22.1141 4.5 23.4315 5.8185C24.75 7.13587 24.75 9.25763 24.75 13.5C24.75 17.7424 24.75 19.8641 23.4315 21.1815C22.1141 22.5 19.9924 22.5 15.75 22.5H11.25C7.00763 22.5 4.88587 22.5 3.5685 21.1815C2.25 19.8641 2.25 17.7424 2.25 13.5Z" stroke="#8463F9" stroke-width="1.5"/>
<path d="M11.25 18.5625H6.75M9 15.1875H6.75M2.25 11.25H24.75" stroke="#8463F9" stroke-width="1.5" stroke-linecap="round"/>
<path d="M15.75 16.875C15.75 15.8141 15.75 15.2843 16.0796 14.9546C16.4093 14.625 16.9391 14.625 18 14.625C19.0609 14.625 19.5908 14.625 19.9204 14.9546C20.25 15.2843 20.25 15.8141 20.25 16.875C20.25 17.9359 20.25 18.4658 19.9204 18.7954C19.5908 19.125 19.0609 19.125 18 19.125C16.9391 19.125 16.4093 19.125 16.0796 18.7954C15.75 18.4658 15.75 17.9359 15.75 16.875Z" stroke="#8463F9" stroke-width="1.5"/>
</svg>
