<svg width="24" height="24" viewBox="0 0 24 24" fill="none" xmlns="http://www.w3.org/2000/svg">
<path d="M2.304 17.13L2.997 16.844L2.304 17.131V17.13ZM11.515 21.892L11.775 21.454L10.483 20.69L10.223 21.128L11.515 21.892ZM8.225 21.454L8.485 21.892L9.776 21.128L9.516 20.69L8.225 21.454ZM10.224 21.128C10.2011 21.1666 10.1681 21.1983 10.1287 21.2197C10.0893 21.2412 10.0449 21.2516 10 21.25C9.95515 21.2516 9.91068 21.2412 9.87127 21.2197C9.83186 21.1983 9.79895 21.1666 9.776 21.128L8.486 21.892C9.162 23.036 10.838 23.036 11.515 21.892L10.224 21.128ZM8.8 6.75H11.2V5.25H8.8V6.75ZM17.25 12.8V13.6H18.75V12.8H17.25ZM2.75 13.6V12.8H1.25V13.6H2.75ZM1.25 13.6C1.25 14.522 1.25 15.25 1.29 15.84C1.33 16.436 1.415 16.944 1.612 17.418L2.997 16.844C2.889 16.583 2.822 16.257 2.787 15.738C2.75 15.211 2.75 14.542 2.75 13.6H1.25ZM6.313 18.835C5.521 18.81 5.09 18.741 4.756 18.603L4.182 19.988C4.779 20.236 5.437 20.308 6.265 20.335L6.313 18.835ZM1.612 17.418C2.09409 18.5815 3.0185 19.5059 4.182 19.988L4.756 18.603C4.36157 18.4396 4.00321 18.2 3.70139 17.898C3.39958 17.596 3.16022 17.2385 2.997 16.844L1.612 17.418ZM17.25 13.6C17.25 14.542 17.25 15.211 17.214 15.738C17.178 16.258 17.111 16.583 17.003 16.844L18.388 17.418C18.585 16.944 18.669 16.436 18.71 15.84C18.75 15.25 18.75 14.522 18.75 13.6H17.25ZM13.735 20.335C14.563 20.308 15.221 20.235 15.818 19.988L15.244 18.603C14.909 18.741 14.479 18.81 13.687 18.835L13.735 20.335ZM17.003 16.844C16.8396 17.2384 16.6 17.5968 16.298 17.8986C15.996 18.2004 15.6375 18.4398 15.243 18.603L15.818 19.988C16.9815 19.5059 17.9059 18.5815 18.388 17.418L17.003 16.844ZM11.2 6.75C12.524 6.75 13.464 6.75 14.195 6.82C14.915 6.889 15.355 7.019 15.698 7.229L16.482 5.95C15.863 5.57 15.167 5.406 14.337 5.327C13.519 5.249 12.495 5.25 11.2 5.25V6.75ZM18.75 12.8C18.75 11.505 18.75 10.481 18.673 9.663C18.594 8.833 18.429 8.138 18.05 7.519L16.771 8.302C16.981 8.645 17.111 9.085 17.18 9.805C17.25 10.535 17.25 11.476 17.25 12.8H18.75ZM15.698 7.229C16.1353 7.49699 16.503 7.86468 16.771 8.302L18.05 7.519C17.6584 6.87994 17.1211 6.34164 16.482 5.95L15.698 7.229ZM8.8 5.25C7.505 5.25 6.481 5.25 5.663 5.327C4.833 5.406 4.137 5.571 3.518 5.95L4.302 7.229C4.645 7.019 5.085 6.889 5.805 6.82C6.535 6.75 7.476 6.75 8.8 6.75V5.25ZM2.75 12.8C2.75 11.476 2.75 10.536 2.82 9.805C2.889 9.085 3.019 8.645 3.229 8.302L1.95 7.518C1.57 8.137 1.406 8.833 1.327 9.663C1.249 10.481 1.25 11.505 1.25 12.8H2.75ZM3.518 5.95C2.87894 6.34164 2.34164 6.87894 1.95 7.518L3.229 8.302C3.49699 7.86468 3.86468 7.49699 4.302 7.229L3.518 5.95ZM9.517 20.69C9.316 20.35 9.14 20.052 8.969 19.816C8.79294 19.5581 8.56468 19.3401 8.299 19.176L7.535 20.468C7.581 20.495 7.645 20.545 7.755 20.698C7.875 20.863 8.011 21.091 8.225 21.454L9.517 20.69ZM6.265 20.335C6.711 20.349 6.995 20.359 7.212 20.385C7.416 20.41 7.493 20.443 7.535 20.468L8.298 19.177C8.008 19.006 7.704 18.934 7.393 18.897C7.095 18.86 6.732 18.849 6.313 18.835L6.265 20.335ZM11.775 21.454C11.989 21.091 12.125 20.863 12.245 20.698C12.355 20.545 12.419 20.495 12.465 20.468L11.702 19.177C11.4363 19.3411 11.2081 19.5591 11.032 19.817C10.86 20.052 10.684 20.351 10.483 20.69L11.775 21.454ZM13.687 18.835C13.268 18.849 12.905 18.86 12.607 18.896C12.297 18.934 11.991 19.007 11.702 19.177L12.465 20.468C12.507 20.443 12.584 20.41 12.788 20.385C13.004 20.359 13.289 20.349 13.735 20.335L13.687 18.835Z" fill="#F1C40F"/>
<path d="M13.375 2.74902H15.625V1.24902H13.375V2.74902ZM21.25 8.37402V9.12402H22.75V8.37402H21.25ZM21.25 9.12402C21.25 10.008 21.25 10.634 21.216 11.124C21.183 11.61 21.12 11.909 21.022 12.147L22.407 12.721C22.594 12.27 22.674 11.788 22.712 11.227C22.75 10.673 22.75 9.98702 22.75 9.12402H21.25ZM21.022 12.147C20.8712 12.5111 20.6502 12.8419 20.3716 13.1206C20.0929 13.3992 19.7621 13.6203 19.398 13.771L19.972 15.157C20.518 14.9308 21.014 14.5992 21.4318 14.1812C21.8496 13.7632 22.181 13.2671 22.407 12.721L21.022 12.147ZM15.625 2.74902C16.867 2.74902 17.745 2.75002 18.429 2.81602C19.1 2.88002 19.504 3.00002 19.817 3.19202L20.601 1.91302C20.013 1.55302 19.352 1.39702 18.571 1.32302C17.801 1.24902 16.838 1.25002 15.625 1.25002V2.74902ZM22.75 8.37502C22.75 7.16202 22.75 6.20002 22.677 5.42902C22.603 4.64802 22.447 3.98702 22.087 3.39902L20.807 4.18302C21 4.49602 21.12 4.90002 21.184 5.57102C21.249 6.25402 21.25 7.13302 21.25 8.37502H22.75ZM19.817 3.19202C20.2205 3.43932 20.5597 3.77956 20.807 4.18302L22.087 3.39902C21.7156 2.79324 21.207 2.28401 20.601 1.91302L19.817 3.19302V3.19202ZM13.375 1.25002C12.162 1.25002 11.2 1.25002 10.429 1.32202C9.648 1.39702 8.987 1.55202 8.399 1.91302L9.182 3.19302C9.496 3.00002 9.9 2.88002 10.572 2.81602C11.254 2.75102 12.132 2.74902 13.375 2.74902V1.25002ZM8.399 1.91302C7.79321 2.28442 7.28398 2.79399 6.913 3.40002L8.192 4.18402C8.4393 3.78056 8.77854 3.44032 9.182 3.19302L8.4 1.91202L8.399 1.91302ZM7.782 6.04002C7.832 5.08002 7.957 4.56702 8.192 4.18402L6.913 3.40002C6.476 4.11302 6.337 4.93802 6.284 5.96202L7.782 6.04002ZM18.025 15.486C18.792 15.46 19.409 15.392 19.972 15.159L19.398 13.773C19.096 13.898 18.704 13.963 17.975 13.987L18.025 15.486Z" fill="#F1C40F"/>
<path d="M6.51 13H6.518M10 13H10.009M13.491 13H13.5" stroke="#F1C40F" stroke-width="2" stroke-linecap="round" stroke-linejoin="round"/>
</svg>
